# xmcd
#
# Track frame offsets:
# 150
# 21637
# 36698
# 53624
# 71167
# 90427
# 107787
# 124370
# 143495
# 163515
# 181489
# 196224
# 214197
# 228670
#
# Disc length: 3267 seconds
#
#
# Revision: 0
# Processed by: cddbd v1.5.2PL0 Copyright (c) Steve Scherf et al.
# Submitted via: FreeRIP 2.945 
#
DISCID=d00cc10e
DTITLE=Chrystian - Beijo Final
DYEAR=2000
DGENRE=Sertanejo
TTITLE0=Foi só engano
TTITLE1=A vida é um rodeio
TTITLE2=Vem ser feliz
TTITLE3=Tudo é possível
TTITLE4=O amor tá procurando
TTITLE5=Duas vidas e um caminho
TTITLE6=Amor sem fim
TTITLE7=Beijo final
TTITLE8=A minha vida (Comme d'habitue - My Way)
TTITLE9=Dei tudo pra você
TTITLE10=Tá no meu coração
TTITLE11=Deixei de amar você
TTITLE12=Romance de férias
TTITLE13=Igual a todo rapaz
EXTD=
EXTT0=
EXTT1=
EXTT2=
EXTT3=
EXTT4=
EXTT5=
EXTT6=
EXTT7=
EXTT8=
EXTT9=
EXTT10=
EXTT11=
EXTT12=
EXTT13=
PLAYORDER=
